<svg viewBox="0 0 44 44" preserveAspectRatio="xMidYMid meet" xmlns="http://www.w3.org/2000/svg">
<path fill-rule="evenodd" clip-rule="evenodd" d="M13.526 31.1425C12.9746 31.1425 12.5216 31.0157 12.1672 30.762C11.8324 30.5083 11.6158 30.1668 11.5173 29.7374C11.4386 29.3081 11.5272 28.83 11.7832 28.3031L19.3451 11.8811C19.6602 11.2176 20.0344 10.7394 20.4676 10.4467C20.9008 10.1345 21.403 9.97835 21.9741 9.97835C22.5452 9.97835 23.0473 10.1345 23.4806 10.4467C23.9138 10.7394 24.2781 11.2176 24.5735 11.8811L32.1945 28.3031C32.4505 28.83 32.5391 29.3179 32.4604 29.7667C32.4013 30.1961 32.2044 30.5376 31.8696 30.7913C31.5348 31.0254 31.1016 31.1425 30.5699 31.1425C29.9003 31.1425 29.3785 30.9864 29.0043 30.6742C28.6499 30.3619 28.3348 29.8741 28.0591 29.2105L26.835 26.4004H17.0927L15.8891 29.2105C15.5937 29.8936 15.2786 30.3912 14.9438 30.7034C14.6288 30.9962 14.1561 31.1425 13.526 31.1425ZM21.915 15.0718L18.6175 22.8584H25.2973L21.9741 15.0718H21.915Z" fill="url(#paint0_linear_282_37)"/>
<path fill-rule="evenodd" clip-rule="evenodd" d="M21.9888 43.8306C34.1329 43.8306 43.9776 34.0188 43.9776 21.9153C43.9776 9.81182 34.1329 0 21.9888 0C9.84473 0 0 9.81182 0 21.9153C0 34.0188 9.84473 43.8306 21.9888 43.8306ZM21.9888 39.7192C31.8193 39.7192 39.8288 31.7703 39.8288 21.9153C39.8288 12.0604 31.8193 4.11145 21.9888 4.11145C12.1583 4.11145 4.14883 12.0604 4.14883 21.9153C4.14883 31.7703 12.1583 39.7192 21.9888 39.7192Z" fill="url(#paint1_linear_282_37)"/>
<defs>
<linearGradient id="paint0_linear_282_37" x1="22.1075" y1="0" x2="22.1075" y2="43.8306" gradientUnits="userSpaceOnUse"><stop stop-color="#4DD1F6"/><stop offset="1" stop-color="#0381F6"/></linearGradient>
<linearGradient id="paint1_linear_282_37" x1="22.1075" y1="0" x2="22.1075" y2="43.8306" gradientUnits="userSpaceOnUse"><stop stop-color="#4DD1F6"/><stop offset="1" stop-color="#0381F6"/></linearGradient>
</defs>
</svg>
